<?xml version="1.0" encoding="UTF-8" standalone="no"?>
<!-- Created with Inkscape (http://www.inkscape.org/) -->

<svg
   width="117.50303mm"
   height="66.679993mm"
   viewBox="0 0 117.50303 66.679993"
   version="1.1"
   id="svg3308"
   inkscape:version="1.2.2 (b0a8486541, 2022-12-01)"
   sodipodi:docname="forward-inverse-chart.svg"
   xmlns:inkscape="http://www.inkscape.org/namespaces/inkscape"
   xmlns:sodipodi="http://sodipodi.sourceforge.net/DTD/sodipodi-0.dtd"
   xmlns="http://www.w3.org/2000/svg"
   xmlns:svg="http://www.w3.org/2000/svg">
  <sodipodi:namedview
     id="namedview3310"
     pagecolor="#191919"
     bordercolor="#000000"
     borderopacity="0.25"
     inkscape:showpageshadow="2"
     inkscape:pageopacity="0"
     inkscape:pagecheckerboard="0"
     inkscape:deskcolor="#d1d1d1"
     inkscape:document-units="mm"
     showgrid="false"
     inkscape:zoom="0.70710678"
     inkscape:cx="306.88434"
     inkscape:cy="176.7767"
     inkscape:window-width="1680"
     inkscape:window-height="1013"
     inkscape:window-x="0"
     inkscape:window-y="0"
     inkscape:window-maximized="1"
     inkscape:current-layer="layer1" />
  <defs
     id="defs3305">
    <marker
       style="overflow:visible"
       id="Arrow2"
       refX="0"
       refY="0"
       orient="auto-start-reverse"
       inkscape:stockid="Arrow2"
       markerWidth="7.6999998"
       markerHeight="5.5999999"
       viewBox="0 0 7.7 5.6"
       inkscape:isstock="true"
       inkscape:collect="always"
       preserveAspectRatio="xMidYMid">
      <path
         transform="scale(0.7)"
         d="M -2,-4 9,0 -2,4 c 2,-2.33 2,-5.66 0,-8 z"
         style="fill:context-stroke;fill-rule:evenodd;stroke:none"
         id="arrow2L" />
    </marker>
    <rect
       x="54.69278"
       y="404.3251"
       width="297.61978"
       height="178.7244"
       id="rect3431" />
    <rect
       x="54.69278"
       y="404.3251"
       width="297.61978"
       height="178.7244"
       id="rect4418" />
    <rect
       x="54.69278"
       y="404.3251"
       width="297.61978"
       height="178.7244"
       id="rect4877" />
    <rect
       x="54.69278"
       y="404.3251"
       width="297.61978"
       height="178.7244"
       id="rect5444" />
  </defs>
  <g
     inkscape:label="Layer 1"
     inkscape:groupmode="layer"
     id="layer1"
     transform="translate(-41.620728,-112.88818)">
    <g
       aria-label="Forward problem"
       transform="matrix(0.26458333,0,0,0.26458333,47.36182,4.7861921)"
       id="text4875"
       style="font-size:24px;font-family:Montserrat;-inkscape-font-specification:Montserrat;white-space:pre;shape-inside:url(#rect4877);display:inline;fill:#cad3f5">
      <path
         d="m 102.88699,417.71846 h 8.88 v 1.536 h -8.88 z m 0.192,8.664 h -1.776 v -16.8 h 11.52 v 1.536 h -9.744 z"
         style="text-align:center;text-anchor:middle"
         id="path5627" />
      <path
         d="m 120.84535,426.50246 q -1.824,0 -3.288,-0.816 -1.44,-0.84 -2.28,-2.28 -0.84,-1.464 -0.84,-3.336 0,-1.896 0.84,-3.336 0.84,-1.44 2.28,-2.256 1.44,-0.816 3.288,-0.816 1.872,0 3.312,0.816 1.464,0.816 2.28,2.256 0.84,1.44 0.84,3.336 0,1.872 -0.84,3.336 -0.816,1.44 -2.28,2.28 -1.464,0.816 -3.312,0.816 z m 0,-1.512 q 1.368,0 2.424,-0.6 1.056,-0.624 1.656,-1.728 0.624,-1.128 0.624,-2.592 0,-1.488 -0.624,-2.592 -0.6,-1.104 -1.656,-1.704 -1.056,-0.624 -2.4,-0.624 -1.344,0 -2.4,0.624 -1.056,0.6 -1.68,1.704 -0.624,1.104 -0.624,2.592 0,1.464 0.624,2.592 0.624,1.104 1.68,1.728 1.056,0.6 2.376,0.6 z"
         style="text-align:center;text-anchor:middle"
         id="path5629" />
      <path
         d="m 130.75737,426.38246 v -12.6 h 1.632 v 3.432 l -0.168,-0.6 q 0.528,-1.44 1.776,-2.184 1.248,-0.768 3.096,-0.768 v 1.656 q -0.096,0 -0.192,0 -0.096,-0.024 -0.192,-0.024 -1.992,0 -3.12,1.224 -1.128,1.2 -1.128,3.432 v 6.432 z"
         style="text-align:center;text-anchor:middle"
         id="path5631" />
      <path
         d="m 143.30933,426.38246 -4.752,-12.6 h 1.632 l 4.32,11.688 h -0.744 l 4.44,-11.688 h 1.464 l 4.392,11.688 h -0.744 l 4.392,-11.688 h 1.56 l -4.776,12.6 h -1.608 l -4.224,-10.992 h 0.504 l -4.248,10.992 z"
         style="text-align:center;text-anchor:middle"
         id="path5633" />
      <path
         d="m 169.34615,426.38246 v -2.784 l -0.072,-0.456 v -4.656 q 0,-1.608 -0.912,-2.472 -0.888,-0.864 -2.664,-0.864 -1.224,0 -2.328,0.408 -1.104,0.408 -1.872,1.08 l -0.768,-1.272 q 0.96,-0.816 2.304,-1.248 1.344,-0.456 2.832,-0.456 2.448,0 3.768,1.224 1.344,1.2 1.344,3.672 v 7.824 z m -4.344,0.12 q -1.416,0 -2.472,-0.456 -1.032,-0.48 -1.584,-1.296 -0.552,-0.84 -0.552,-1.92 0,-0.984 0.456,-1.776 0.48,-0.816 1.536,-1.296 1.08,-0.504 2.88,-0.504 h 4.344 v 1.272 h -4.296 q -1.824,0 -2.544,0.648 -0.696,0.648 -0.696,1.608 0,1.08 0.84,1.728 0.84,0.648 2.352,0.648 1.44,0 2.472,-0.648 1.056,-0.672 1.536,-1.92 l 0.384,1.176 q -0.48,1.248 -1.68,1.992 -1.176,0.744 -2.976,0.744 z"
         style="text-align:center;text-anchor:middle"
         id="path5635" />
      <path
         d="m 175.61015,426.38246 v -12.6 h 1.632 v 3.432 l -0.168,-0.6 q 0.528,-1.44 1.776,-2.184 1.248,-0.768 3.096,-0.768 v 1.656 q -0.096,0 -0.192,0 -0.096,-0.024 -0.192,-0.024 -1.992,0 -3.12,1.224 -1.128,1.2 -1.128,3.432 v 6.432 z"
         style="text-align:center;text-anchor:middle"
         id="path5637" />
      <path
         d="m 189.94453,426.50246 q -1.8,0 -3.24,-0.816 -1.416,-0.816 -2.232,-2.256 -0.816,-1.464 -0.816,-3.36 0,-1.92 0.816,-3.36 0.816,-1.44 2.232,-2.232 1.44,-0.816 3.24,-0.816 1.656,0 2.952,0.744 1.32,0.744 2.088,2.184 0.792,1.416 0.792,3.48 0,2.04 -0.768,3.48 -0.768,1.44 -2.088,2.208 -1.296,0.744 -2.976,0.744 z m 0.12,-1.512 q 1.344,0 2.4,-0.6 1.08,-0.624 1.68,-1.728 0.624,-1.128 0.624,-2.592 0,-1.488 -0.624,-2.592 -0.6,-1.104 -1.68,-1.704 -1.056,-0.624 -2.4,-0.624 -1.32,0 -2.376,0.624 -1.056,0.6 -1.68,1.704 -0.624,1.104 -0.624,2.592 0,1.464 0.624,2.592 0.624,1.104 1.68,1.728 1.056,0.6 2.376,0.6 z m 4.752,1.392 v -3.792 l 0.168,-2.544 -0.24,-2.544 v -8.928 h 1.704 v 17.808 z"
         style="text-align:center;text-anchor:middle"
         id="path5639" />
      <path
         d="m 213.9925,426.50246 q -1.632,0 -2.952,-0.744 -1.32,-0.768 -2.112,-2.184 -0.768,-1.44 -0.768,-3.504 0,-2.064 0.768,-3.48 0.768,-1.44 2.088,-2.184 1.32,-0.744 2.976,-0.744 1.8,0 3.216,0.816 1.44,0.792 2.256,2.256 0.816,1.44 0.816,3.336 0,1.92 -0.816,3.36 -0.816,1.44 -2.256,2.256 -1.416,0.816 -3.216,0.816 z m -6.504,4.536 v -17.256 h 1.632 v 3.792 l -0.168,2.52 0.24,2.544 v 8.4 z m 6.384,-6.048 q 1.344,0 2.4,-0.6 1.056,-0.624 1.68,-1.728 0.624,-1.128 0.624,-2.592 0,-1.464 -0.624,-2.568 -0.624,-1.104 -1.68,-1.728 -1.056,-0.624 -2.4,-0.624 -1.344,0 -2.424,0.624 -1.056,0.624 -1.68,1.728 -0.6,1.104 -0.6,2.568 0,1.464 0.6,2.592 0.624,1.104 1.68,1.728 1.08,0.6 2.424,0.6 z"
         style="text-align:center;text-anchor:middle"
         id="path5641" />
      <path
         d="m 223.76048,426.38246 v -12.6 h 1.632 v 3.432 l -0.168,-0.6 q 0.528,-1.44 1.776,-2.184 1.248,-0.768 3.096,-0.768 v 1.656 q -0.096,0 -0.192,0 -0.096,-0.024 -0.192,-0.024 -1.992,0 -3.12,1.224 -1.128,1.2 -1.128,3.432 v 6.432 z"
         style="text-align:center;text-anchor:middle"
         id="path5643" />
      <path
         d="m 238.21486,426.50246 q -1.824,0 -3.288,-0.816 -1.44,-0.84 -2.28,-2.28 -0.84,-1.464 -0.84,-3.336 0,-1.896 0.84,-3.336 0.84,-1.44 2.28,-2.256 1.44,-0.816 3.288,-0.816 1.872,0 3.312,0.816 1.464,0.816 2.28,2.256 0.84,1.44 0.84,3.336 0,1.872 -0.84,3.336 -0.816,1.44 -2.28,2.28 -1.464,0.816 -3.312,0.816 z m 0,-1.512 q 1.368,0 2.424,-0.6 1.056,-0.624 1.656,-1.728 0.624,-1.128 0.624,-2.592 0,-1.488 -0.624,-2.592 -0.6,-1.104 -1.656,-1.704 -1.056,-0.624 -2.4,-0.624 -1.344,0 -2.4,0.624 -1.056,0.6 -1.68,1.704 -0.624,1.104 -0.624,2.592 0,1.464 0.624,2.592 0.624,1.104 1.68,1.728 1.056,0.6 2.376,0.6 z"
         style="text-align:center;text-anchor:middle"
         id="path5645" />
      <path
         d="m 254.63088,426.50246 q -1.656,0 -2.976,-0.744 -1.32,-0.768 -2.088,-2.208 -0.768,-1.44 -0.768,-3.48 0,-2.064 0.768,-3.48 0.792,-1.44 2.112,-2.184 1.32,-0.744 2.952,-0.744 1.8,0 3.216,0.816 1.44,0.792 2.256,2.232 0.816,1.44 0.816,3.36 0,1.896 -0.816,3.36 -0.816,1.44 -2.256,2.256 -1.416,0.816 -3.216,0.816 z m -6.504,-0.12 v -17.808 h 1.704 v 8.928 l -0.24,2.544 0.168,2.544 v 3.792 z m 6.384,-1.392 q 1.344,0 2.4,-0.6 1.056,-0.624 1.68,-1.728 0.624,-1.128 0.624,-2.592 0,-1.488 -0.624,-2.592 -0.624,-1.104 -1.68,-1.704 -1.056,-0.624 -2.4,-0.624 -1.344,0 -2.424,0.624 -1.056,0.6 -1.68,1.704 -0.6,1.104 -0.6,2.592 0,1.464 0.6,2.592 0.624,1.104 1.68,1.728 1.08,0.6 2.424,0.6 z"
         style="text-align:center;text-anchor:middle"
         id="path5647" />
      <path
         d="m 264.39887,426.38246 v -17.808 h 1.704 v 17.808 z"
         style="text-align:center;text-anchor:middle"
         id="path5649" />
      <path
         d="m 276.20684,426.50246 q -1.968,0 -3.456,-0.816 -1.488,-0.84 -2.328,-2.28 -0.84,-1.464 -0.84,-3.336 0,-1.872 0.792,-3.312 0.816,-1.44 2.208,-2.256 1.416,-0.84 3.168,-0.84 1.776,0 3.144,0.816 1.392,0.792 2.184,2.256 0.792,1.44 0.792,3.336 0,0.12 -0.024,0.264 0,0.12 0,0.264 h -10.968 v -1.272 h 10.056 l -0.672,0.504 q 0,-1.368 -0.6,-2.424 -0.576,-1.08 -1.584,-1.68 -1.008,-0.6 -2.328,-0.6 -1.296,0 -2.328,0.6 -1.032,0.6 -1.608,1.68 -0.576,1.08 -0.576,2.472 v 0.264 q 0,1.44 0.624,2.544 0.648,1.08 1.776,1.704 1.152,0.6 2.616,0.6 1.152,0 2.136,-0.408 1.008,-0.408 1.728,-1.248 l 0.96,1.104 q -0.84,1.008 -2.112,1.536 -1.248,0.528 -2.76,0.528 z"
         style="text-align:center;text-anchor:middle"
         id="path5651" />
      <path
         d="m 301.09485,413.66246 q 1.536,0 2.664,0.6 1.152,0.576 1.776,1.776 0.648,1.2 0.648,3.024 v 7.32 h -1.704 v -7.152 q 0,-1.992 -0.96,-3 -0.936,-1.032 -2.664,-1.032 -1.296,0 -2.256,0.552 -0.936,0.528 -1.464,1.56 -0.504,1.008 -0.504,2.448 v 6.624 h -1.704 v -7.152 q 0,-1.992 -0.96,-3 -0.96,-1.032 -2.688,-1.032 -1.272,0 -2.232,0.552 -0.96,0.528 -1.488,1.56 -0.504,1.008 -0.504,2.448 v 6.624 h -1.704 v -12.6 h 1.632 v 3.408 l -0.264,-0.6 q 0.576,-1.368 1.848,-2.136 1.296,-0.792 3.048,-0.792 1.848,0 3.144,0.936 1.296,0.912 1.68,2.76 l -0.672,-0.264 q 0.552,-1.536 1.944,-2.472 1.416,-0.96 3.384,-0.96 z"
         style="text-align:center;text-anchor:middle"
         id="path5653" />
    </g>
    <g
       id="g5460"
       transform="translate(0,2.225788)">
      <g
         id="g5422"
         transform="translate(0,-0.10700586)">
        <path
           id="rect3695"
           style="fill:#c6a0f6;stroke-width:0.229089"
           d="m 46.553344,133.84784 h 24.785157 c 2.73267,0 4.932617,2.19995 4.932617,4.93262 v 9.51275 c 0,2.73267 -2.199947,4.93262 -4.932617,4.93262 H 46.553344 c -2.732669,0 -4.932616,-2.19995 -4.932616,-4.93262 v -9.51275 c 0,-2.73267 2.199947,-4.93262 4.932616,-4.93262 z" />
        <g
           aria-label="Model"
           transform="matrix(0.26458333,0,0,0.26458333,5.0548106,33.063112)"
           id="text3429"
           style="font-size:24px;font-family:Montserrat;-inkscape-font-specification:Montserrat;white-space:pre;shape-inside:url(#rect3431);display:inline;fill:#fa9600">
          <path
             d="m 168.64294,426.38246 v -16.8 h 1.464 l 7.68,13.104 h -0.768 l 7.608,-13.104 h 1.464 v 16.8 h -1.704 v -14.136 h 0.408 l -7.008,12 h -0.84 l -7.056,-12 h 0.456 v 14.136 z"
             style="text-align:center;text-anchor:middle;fill:#191919"
             id="path5657" />
          <path
             d="m 196.33893,426.50246 q -1.824,0 -3.288,-0.816 -1.44,-0.84 -2.28,-2.28 -0.84,-1.464 -0.84,-3.336 0,-1.896 0.84,-3.336 0.84,-1.44 2.28,-2.256 1.44,-0.816 3.288,-0.816 1.872,0 3.312,0.816 1.464,0.816 2.28,2.256 0.84,1.44 0.84,3.336 0,1.872 -0.84,3.336 -0.816,1.44 -2.28,2.28 -1.464,0.816 -3.312,0.816 z m 0,-1.512 q 1.368,0 2.424,-0.6 1.056,-0.624 1.656,-1.728 0.624,-1.128 0.624,-2.592 0,-1.488 -0.624,-2.592 -0.6,-1.104 -1.656,-1.704 -1.056,-0.624 -2.4,-0.624 -1.344,0 -2.4,0.624 -1.056,0.6 -1.68,1.704 -0.624,1.104 -0.624,2.592 0,1.464 0.624,2.592 0.624,1.104 1.68,1.728 1.056,0.6 2.376,0.6 z"
             style="text-align:center;text-anchor:middle;fill:#191919"
             id="path5659" />
          <path
             d="m 211.26695,426.50246 q -1.8,0 -3.24,-0.816 -1.416,-0.816 -2.232,-2.256 -0.816,-1.464 -0.816,-3.36 0,-1.92 0.816,-3.36 0.816,-1.44 2.232,-2.232 1.44,-0.816 3.24,-0.816 1.656,0 2.952,0.744 1.32,0.744 2.088,2.184 0.792,1.416 0.792,3.48 0,2.04 -0.768,3.48 -0.768,1.44 -2.088,2.208 -1.296,0.744 -2.976,0.744 z m 0.12,-1.512 q 1.344,0 2.4,-0.6 1.08,-0.624 1.68,-1.728 0.624,-1.128 0.624,-2.592 0,-1.488 -0.624,-2.592 -0.6,-1.104 -1.68,-1.704 -1.056,-0.624 -2.4,-0.624 -1.32,0 -2.376,0.624 -1.056,0.6 -1.68,1.704 -0.624,1.104 -0.624,2.592 0,1.464 0.624,2.592 0.624,1.104 1.68,1.728 1.056,0.6 2.376,0.6 z m 4.752,1.392 v -3.792 l 0.168,-2.544 -0.24,-2.544 v -8.928 h 1.704 v 17.808 z"
             style="text-align:center;text-anchor:middle;fill:#191919"
             id="path5661" />
          <path
             d="m 227.87494,426.50246 q -1.968,0 -3.456,-0.816 -1.488,-0.84 -2.328,-2.28 -0.84,-1.464 -0.84,-3.336 0,-1.872 0.792,-3.312 0.816,-1.44 2.208,-2.256 1.416,-0.84 3.168,-0.84 1.776,0 3.144,0.816 1.392,0.792 2.184,2.256 0.792,1.44 0.792,3.336 0,0.12 -0.024,0.264 0,0.12 0,0.264 h -10.968 v -1.272 h 10.056 l -0.672,0.504 q 0,-1.368 -0.6,-2.424 -0.576,-1.08 -1.584,-1.68 -1.008,-0.6 -2.328,-0.6 -1.296,0 -2.328,0.6 -1.032,0.6 -1.608,1.68 -0.576,1.08 -0.576,2.472 v 0.264 q 0,1.44 0.624,2.544 0.648,1.08 1.776,1.704 1.152,0.6 2.616,0.6 1.152,0 2.136,-0.408 1.008,-0.408 1.728,-1.248 l 0.96,1.104 q -0.84,1.008 -2.112,1.536 -1.248,0.528 -2.76,0.528 z"
             style="text-align:center;text-anchor:middle;fill:#191919"
             id="path5663" />
          <path
             d="m 237.01894,426.38246 v -17.808 h 1.704 v 17.808 z"
             style="text-align:center;text-anchor:middle;fill:#191919"
             id="path5665" />
        </g>
      </g>
      <g
         id="g4416"
         transform="translate(85.873896,-14.407604)">
        <path
           id="rect4410"
           style="fill:#a6da95;stroke-width:0.229089"
           d="m 43.532089,148.14844 h 24.785157 c 2.73267,0 4.932617,2.19994 4.932617,4.93261 v 9.51276 c 0,2.73267 -2.199947,4.93261 -4.932617,4.93261 H 43.532089 c -2.73267,0 -4.932617,-2.19994 -4.932617,-4.93261 v -9.51276 c 0,-2.73267 2.199947,-4.93261 4.932617,-4.93261 z" />
        <g
           aria-label="Data"
           transform="matrix(0.26458333,0,0,0.26458333,2.0335567,47.363714)"
           id="text4414"
           style="font-size:24px;font-family:Montserrat;-inkscape-font-specification:Montserrat;white-space:pre;shape-inside:url(#rect4418);display:inline;fill:#fa9600">
          <path
             d="m 177.29492,426.38246 v -16.8 h 6.84 q 2.688,0 4.704,1.08 2.04,1.056 3.168,2.952 1.128,1.896 1.128,4.368 0,2.472 -1.128,4.368 -1.128,1.896 -3.168,2.976 -2.016,1.056 -4.704,1.056 z m 1.776,-1.536 h 4.968 q 2.232,0 3.864,-0.864 1.656,-0.888 2.568,-2.424 0.912,-1.56 0.912,-3.576 0,-2.04 -0.912,-3.576 -0.912,-1.536 -2.568,-2.4 -1.632,-0.888 -3.864,-0.888 h -4.968 z"
             style="text-align:center;text-anchor:middle;fill:#191919"
             id="path5669" />
          <path
             d="m 204.65493,426.38246 v -2.784 l -0.072,-0.456 v -4.656 q 0,-1.608 -0.912,-2.472 -0.888,-0.864 -2.664,-0.864 -1.224,0 -2.328,0.408 -1.104,0.408 -1.872,1.08 l -0.768,-1.272 q 0.96,-0.816 2.304,-1.248 1.344,-0.456 2.832,-0.456 2.448,0 3.768,1.224 1.344,1.2 1.344,3.672 v 7.824 z m -4.344,0.12 q -1.416,0 -2.472,-0.456 -1.032,-0.48 -1.584,-1.296 -0.552,-0.84 -0.552,-1.92 0,-0.984 0.456,-1.776 0.48,-0.816 1.536,-1.296 1.08,-0.504 2.88,-0.504 h 4.344 v 1.272 h -4.296 q -1.824,0 -2.544,0.648 -0.696,0.648 -0.696,1.608 0,1.08 0.84,1.728 0.84,0.648 2.352,0.648 1.44,0 2.472,-0.648 1.056,-0.672 1.536,-1.92 l 0.384,1.176 q -0.48,1.248 -1.68,1.992 -1.176,0.744 -2.976,0.744 z"
             style="text-align:center;text-anchor:middle;fill:#191919"
             id="path5671" />
          <path
             d="m 214.90293,426.50246 q -1.776,0 -2.736,-0.96 -0.96,-0.96 -0.96,-2.712 v -11.832 h 1.704 v 11.736 q 0,1.104 0.552,1.704 0.576,0.6 1.632,0.6 1.128,0 1.872,-0.648 l 0.6,1.224 q -0.504,0.456 -1.224,0.672 -0.696,0.216 -1.44,0.216 z m -5.952,-11.304 v -1.416 h 7.8 v 1.416 z"
             style="text-align:center;text-anchor:middle;fill:#191919"
             id="path5673" />
          <path
             d="m 228.55893,426.38246 v -2.784 l -0.072,-0.456 v -4.656 q 0,-1.608 -0.912,-2.472 -0.888,-0.864 -2.664,-0.864 -1.224,0 -2.328,0.408 -1.104,0.408 -1.872,1.08 l -0.768,-1.272 q 0.96,-0.816 2.304,-1.248 1.344,-0.456 2.832,-0.456 2.448,0 3.768,1.224 1.344,1.2 1.344,3.672 v 7.824 z m -4.344,0.12 q -1.416,0 -2.472,-0.456 -1.032,-0.48 -1.584,-1.296 -0.552,-0.84 -0.552,-1.92 0,-0.984 0.456,-1.776 0.48,-0.816 1.536,-1.296 1.08,-0.504 2.88,-0.504 h 4.344 v 1.272 h -4.296 q -1.824,0 -2.544,0.648 -0.696,0.648 -0.696,1.608 0,1.08 0.84,1.728 0.84,0.648 2.352,0.648 1.44,0 2.472,-0.648 1.056,-0.672 1.536,-1.92 l 0.384,1.176 q -0.48,1.248 -1.68,1.992 -1.176,0.744 -2.976,0.744 z"
             style="text-align:center;text-anchor:middle;fill:#191919"
             id="path5675" />
        </g>
      </g>
    </g>
    <path
       style="fill:none;fill-opacity:1;stroke:#cad3f5;stroke-width:1;stroke-dasharray:none;marker-end:url(#Arrow2)"
       d="m 65.754715,132.11354 c 5.599185,-6.46695 23.259902,-10.39669 34.414025,-10.39669 11.15413,0 27.2078,2.63394 32.50733,7.9375"
       id="path4483"
       sodipodi:nodetypes="czc" />
    <g
       aria-label="Inverse problem"
       transform="matrix(0.26458333,0,0,0.26458333,47.361822,65.522586)"
       id="text5440"
       style="font-size:24px;font-family:Montserrat;-inkscape-font-specification:Montserrat;white-space:pre;shape-inside:url(#rect5444);display:inline;fill:#cad3f5">
      <path
         d="m 108.35374,426.38246 v -16.8 h 1.776 v 16.8 z"
         style="text-align:center;text-anchor:middle"
         id="path5678" />
      <path
         d="m 121.67375,413.66246 q 1.536,0 2.688,0.6 1.176,0.576 1.824,1.776 0.672,1.2 0.672,3.024 v 7.32 h -1.704 v -7.152 q 0,-1.992 -1.008,-3 -0.984,-1.032 -2.784,-1.032 -1.344,0 -2.352,0.552 -0.984,0.528 -1.536,1.56 -0.528,1.008 -0.528,2.448 v 6.624 h -1.704 v -12.6 h 1.632 v 3.456 l -0.264,-0.648 q 0.6,-1.368 1.92,-2.136 1.32,-0.792 3.144,-0.792 z"
         style="text-align:center;text-anchor:middle"
         id="path5680" />
      <path
         d="m 134.46575,426.38246 -5.592,-12.6 h 1.776 l 5.136,11.688 h -0.84 l 5.208,-11.688 h 1.68 l -5.616,12.6 z"
         style="text-align:center;text-anchor:middle"
         id="path5682" />
      <path
         d="m 149.22576,426.50246 q -1.968,0 -3.456,-0.816 -1.488,-0.84 -2.328,-2.28 -0.84,-1.464 -0.84,-3.336 0,-1.872 0.792,-3.312 0.816,-1.44 2.208,-2.256 1.416,-0.84 3.168,-0.84 1.776,0 3.144,0.816 1.392,0.792 2.184,2.256 0.792,1.44 0.792,3.336 0,0.12 -0.024,0.264 0,0.12 0,0.264 h -10.968 v -1.272 h 10.056 l -0.672,0.504 q 0,-1.368 -0.6,-2.424 -0.576,-1.08 -1.584,-1.68 -1.008,-0.6 -2.328,-0.6 -1.296,0 -2.328,0.6 -1.032,0.6 -1.608,1.68 -0.576,1.08 -0.576,2.472 v 0.264 q 0,1.44 0.624,2.544 0.648,1.08 1.776,1.704 1.152,0.6 2.616,0.6 1.152,0 2.136,-0.408 1.008,-0.408 1.728,-1.248 l 0.96,1.104 q -0.84,1.008 -2.112,1.536 -1.248,0.528 -2.76,0.528 z"
         style="text-align:center;text-anchor:middle"
         id="path5684" />
      <path
         d="m 158.36977,426.38246 v -12.6 h 1.632 v 3.432 l -0.168,-0.6 q 0.528,-1.44 1.776,-2.184 1.248,-0.768 3.096,-0.768 v 1.656 q -0.096,0 -0.192,0 -0.096,-0.024 -0.192,-0.024 -1.992,0 -3.12,1.224 -1.128,1.2 -1.128,3.432 v 6.432 z"
         style="text-align:center;text-anchor:middle"
         id="path5686" />
      <path
         d="m 171.32574,426.50246 q -1.56,0 -2.952,-0.432 -1.392,-0.456 -2.184,-1.128 l 0.768,-1.344 q 0.768,0.576 1.968,1.008 1.2,0.408 2.52,0.408 1.8,0 2.592,-0.552 0.792,-0.576 0.792,-1.512 0,-0.696 -0.456,-1.08 -0.432,-0.408 -1.152,-0.6 -0.72,-0.216 -1.608,-0.36 -0.888,-0.144 -1.776,-0.336 -0.864,-0.192 -1.584,-0.552 -0.72,-0.384 -1.176,-1.032 -0.432,-0.648 -0.432,-1.728 0,-1.032 0.576,-1.848 0.576,-0.816 1.68,-1.272 1.128,-0.48 2.736,-0.48 1.224,0 2.448,0.336 1.224,0.312 2.016,0.84 l -0.744,1.368 q -0.84,-0.576 -1.8,-0.816 -0.96,-0.264 -1.92,-0.264 -1.704,0 -2.52,0.6 -0.792,0.576 -0.792,1.488 0,0.72 0.432,1.128 0.456,0.408 1.176,0.648 0.744,0.216 1.608,0.36 0.888,0.144 1.752,0.36 0.888,0.192 1.608,0.552 0.744,0.336 1.176,0.984 0.456,0.624 0.456,1.656 0,1.104 -0.624,1.92 -0.6,0.792 -1.776,1.248 -1.152,0.432 -2.808,0.432 z"
         style="text-align:center;text-anchor:middle"
         id="path5688" />
      <path
         d="m 185.00576,426.50246 q -1.968,0 -3.456,-0.816 -1.488,-0.84 -2.328,-2.28 -0.84,-1.464 -0.84,-3.336 0,-1.872 0.792,-3.312 0.816,-1.44 2.208,-2.256 1.416,-0.84 3.168,-0.84 1.776,0 3.144,0.816 1.392,0.792 2.184,2.256 0.792,1.44 0.792,3.336 0,0.12 -0.024,0.264 0,0.12 0,0.264 h -10.968 v -1.272 h 10.056 l -0.672,0.504 q 0,-1.368 -0.6,-2.424 -0.576,-1.08 -1.584,-1.68 -1.008,-0.6 -2.328,-0.6 -1.296,0 -2.328,0.6 -1.032,0.6 -1.608,1.68 -0.576,1.08 -0.576,2.472 v 0.264 q 0,1.44 0.624,2.544 0.648,1.08 1.776,1.704 1.152,0.6 2.616,0.6 1.152,0 2.136,-0.408 1.008,-0.408 1.728,-1.248 l 0.96,1.104 q -0.84,1.008 -2.112,1.536 -1.248,0.528 -2.76,0.528 z"
         style="text-align:center;text-anchor:middle"
         id="path5690" />
      <path
         d="m 206.94174,426.50246 q -1.632,0 -2.952,-0.744 -1.32,-0.768 -2.112,-2.184 -0.768,-1.44 -0.768,-3.504 0,-2.064 0.768,-3.48 0.768,-1.44 2.088,-2.184 1.32,-0.744 2.976,-0.744 1.8,0 3.216,0.816 1.44,0.792 2.256,2.256 0.816,1.44 0.816,3.336 0,1.92 -0.816,3.36 -0.816,1.44 -2.256,2.256 -1.416,0.816 -3.216,0.816 z m -6.504,4.536 v -17.256 h 1.632 v 3.792 l -0.168,2.52 0.24,2.544 v 8.4 z m 6.384,-6.048 q 1.344,0 2.4,-0.6 1.056,-0.624 1.68,-1.728 0.624,-1.128 0.624,-2.592 0,-1.464 -0.624,-2.568 -0.624,-1.104 -1.68,-1.728 -1.056,-0.624 -2.4,-0.624 -1.344,0 -2.424,0.624 -1.056,0.624 -1.68,1.728 -0.6,1.104 -0.6,2.568 0,1.464 0.6,2.592 0.624,1.104 1.68,1.728 1.08,0.6 2.424,0.6 z"
         style="text-align:center;text-anchor:middle"
         id="path5692" />
      <path
         d="m 216.70973,426.38246 v -12.6 h 1.632 v 3.432 l -0.168,-0.6 q 0.528,-1.44 1.776,-2.184 1.248,-0.768 3.096,-0.768 v 1.656 q -0.096,0 -0.192,0 -0.096,-0.024 -0.192,-0.024 -1.992,0 -3.12,1.224 -1.128,1.2 -1.128,3.432 v 6.432 z"
         style="text-align:center;text-anchor:middle"
         id="path5694" />
      <path
         d="m 231.16411,426.50246 q -1.824,0 -3.288,-0.816 -1.44,-0.84 -2.28,-2.28 -0.84,-1.464 -0.84,-3.336 0,-1.896 0.84,-3.336 0.84,-1.44 2.28,-2.256 1.44,-0.816 3.288,-0.816 1.872,0 3.312,0.816 1.464,0.816 2.28,2.256 0.84,1.44 0.84,3.336 0,1.872 -0.84,3.336 -0.816,1.44 -2.28,2.28 -1.464,0.816 -3.312,0.816 z m 0,-1.512 q 1.368,0 2.424,-0.6 1.056,-0.624 1.656,-1.728 0.624,-1.128 0.624,-2.592 0,-1.488 -0.624,-2.592 -0.6,-1.104 -1.656,-1.704 -1.056,-0.624 -2.4,-0.624 -1.344,0 -2.4,0.624 -1.056,0.6 -1.68,1.704 -0.624,1.104 -0.624,2.592 0,1.464 0.624,2.592 0.624,1.104 1.68,1.728 1.056,0.6 2.376,0.6 z"
         style="text-align:center;text-anchor:middle"
         id="path5696" />
      <path
         d="m 247.58013,426.50246 q -1.656,0 -2.976,-0.744 -1.32,-0.768 -2.088,-2.208 -0.768,-1.44 -0.768,-3.48 0,-2.064 0.768,-3.48 0.792,-1.44 2.112,-2.184 1.32,-0.744 2.952,-0.744 1.8,0 3.216,0.816 1.44,0.792 2.256,2.232 0.816,1.44 0.816,3.36 0,1.896 -0.816,3.36 -0.816,1.44 -2.256,2.256 -1.416,0.816 -3.216,0.816 z m -6.504,-0.12 v -17.808 h 1.704 v 8.928 l -0.24,2.544 0.168,2.544 v 3.792 z m 6.384,-1.392 q 1.344,0 2.4,-0.6 1.056,-0.624 1.68,-1.728 0.624,-1.128 0.624,-2.592 0,-1.488 -0.624,-2.592 -0.624,-1.104 -1.68,-1.704 -1.056,-0.624 -2.4,-0.624 -1.344,0 -2.424,0.624 -1.056,0.6 -1.68,1.704 -0.6,1.104 -0.6,2.592 0,1.464 0.6,2.592 0.624,1.104 1.68,1.728 1.08,0.6 2.424,0.6 z"
         style="text-align:center;text-anchor:middle"
         id="path5698" />
      <path
         d="m 257.34811,426.38246 v -17.808 h 1.704 v 17.808 z"
         style="text-align:center;text-anchor:middle"
         id="path5700" />
      <path
         d="m 269.15609,426.50246 q -1.968,0 -3.456,-0.816 -1.488,-0.84 -2.328,-2.28 -0.84,-1.464 -0.84,-3.336 0,-1.872 0.792,-3.312 0.816,-1.44 2.208,-2.256 1.416,-0.84 3.168,-0.84 1.776,0 3.144,0.816 1.392,0.792 2.184,2.256 0.792,1.44 0.792,3.336 0,0.12 -0.024,0.264 0,0.12 0,0.264 h -10.968 v -1.272 h 10.056 l -0.672,0.504 q 0,-1.368 -0.6,-2.424 -0.576,-1.08 -1.584,-1.68 -1.008,-0.6 -2.328,-0.6 -1.296,0 -2.328,0.6 -1.032,0.6 -1.608,1.68 -0.576,1.08 -0.576,2.472 v 0.264 q 0,1.44 0.624,2.544 0.648,1.08 1.776,1.704 1.152,0.6 2.616,0.6 1.152,0 2.136,-0.408 1.008,-0.408 1.728,-1.248 l 0.96,1.104 q -0.84,1.008 -2.112,1.536 -1.248,0.528 -2.76,0.528 z"
         style="text-align:center;text-anchor:middle"
         id="path5702" />
      <path
         d="m 294.0441,413.66246 q 1.536,0 2.664,0.6 1.152,0.576 1.776,1.776 0.648,1.2 0.648,3.024 v 7.32 h -1.704 v -7.152 q 0,-1.992 -0.96,-3 -0.936,-1.032 -2.664,-1.032 -1.296,0 -2.256,0.552 -0.936,0.528 -1.464,1.56 -0.504,1.008 -0.504,2.448 v 6.624 h -1.704 v -7.152 q 0,-1.992 -0.96,-3 -0.96,-1.032 -2.688,-1.032 -1.272,0 -2.232,0.552 -0.96,0.528 -1.488,1.56 -0.504,1.008 -0.504,2.448 v 6.624 h -1.704 v -12.6 h 1.632 v 3.408 l -0.264,-0.6 q 0.576,-1.368 1.848,-2.136 1.296,-0.792 3.048,-0.792 1.848,0 3.144,0.936 1.296,0.912 1.68,2.76 l -0.672,-0.264 q 0.552,-1.536 1.944,-2.472 1.416,-0.96 3.384,-0.96 z"
         style="text-align:center;text-anchor:middle"
         id="path5704" />
    </g>
    <path
       style="fill:none;fill-opacity:1;stroke:#cad3f5;stroke-width:1;stroke-dasharray:none;marker-end:url(#Arrow2)"
       d="m 136.75115,159.19769 c -5.59919,6.46695 -23.25991,10.39669 -34.41403,10.39669 -11.15413,0 -27.2078,-2.63394 -32.50733,-7.9375"
       id="path5442"
       sodipodi:nodetypes="czc" />
  </g>
</svg>
