<?xml version="1.0" encoding="UTF-8" standalone="no"?>
<!-- Created with Inkscape (http://www.inkscape.org/) -->

<svg
   width="262.74655mm"
   height="120.43073mm"
   viewBox="0 0 262.74655 120.43073"
   version="1.1"
   id="svg1959"
   inkscape:version="1.2.2 (b0a8486541, 2022-12-01)"
   sodipodi:docname="surveys.svg"
   xmlns:inkscape="http://www.inkscape.org/namespaces/inkscape"
   xmlns:sodipodi="http://sodipodi.sourceforge.net/DTD/sodipodi-0.dtd"
   xmlns="http://www.w3.org/2000/svg"
   xmlns:svg="http://www.w3.org/2000/svg">
  <sodipodi:namedview
     id="namedview1961"
     pagecolor="#ffffff"
     bordercolor="#000000"
     borderopacity="0.25"
     inkscape:showpageshadow="2"
     inkscape:pageopacity="0.0"
     inkscape:pagecheckerboard="0"
     inkscape:deskcolor="#d1d1d1"
     inkscape:document-units="mm"
     showgrid="false"
     inkscape:zoom="0.49260384"
     inkscape:cx="407.02078"
     inkscape:cy="426.30606"
     inkscape:window-width="1680"
     inkscape:window-height="1013"
     inkscape:window-x="26"
     inkscape:window-y="23"
     inkscape:window-maximized="0"
     inkscape:current-layer="layer1" />
  <defs
     id="defs1956">
    <rect
       x="-92.619987"
       y="224.72598"
       width="254.83673"
       height="42.177475"
       id="rect2309" />
    <rect
       x="-92.619987"
       y="224.72598"
       width="254.83673"
       height="42.177475"
       id="rect2574" />
  </defs>
  <g
     inkscape:label="Layer 1"
     inkscape:groupmode="layer"
     id="layer1"
     transform="translate(32.00485,-62.023256)">
    <g
       transform="translate(332.45544,-70.40087)"
       id="g2528">
      <path
         style="fill:#becfc7;fill-opacity:1;stroke:none;stroke-width:0.493058;stroke-linecap:butt;stroke-linejoin:miter;stroke-miterlimit:4;stroke-dasharray:none;stroke-opacity:1"
         d="m -364.46029,243.59539 c 0,0 2.20985,-2.57816 3.8304,-2.87281 1.62057,-0.29464 2.43085,0.22099 3.02013,0.22099 0.58931,0 5.08268,-0.14732 6.33492,-0.44197 1.25226,-0.29465 4.19873,-0.88395 6.62956,-2.43084 2.43085,-1.5469 3.75675,-2.65183 5.37731,-3.16746 1.62057,-0.51563 5.30365,-1.25226 6.70322,-1.98886 1.39958,-0.73663 8.76575,-7.36619 9.20772,-8.02915 0.44197,-0.66295 1.76789,-2.20985 3.90407,-2.72548 2.1362,-0.51564 3.02015,-0.81028 3.31479,-1.25226 0.29464,-0.44196 0.21771,-1.06055 0.47815,-1.24286 0.26043,-0.1823 1.35425,-0.41669 1.64073,-0.41669 0.28647,0 1.3282,-0.026 1.84908,-0.44274 0.52087,-0.41669 1.23706,-1.01569 1.47144,-1.08079 0.23439,-0.0651 2.30484,-0.27346 2.73455,-0.57296 0.42973,-0.2995 0.93757,-1.31519 1.47145,-1.47145 0.5339,-0.15626 2.26578,0.27345 2.68247,-0.15626 0.41671,-0.42972 0.876,-1.66936 1.57579,-1.87194 0.69978,-0.20257 1.7863,0.40515 2.61499,0.36831 0.82869,-0.0368 1.09603,-0.52776 1.61689,-0.76214 0.52087,-0.2344 4.63573,-0.67714 5.18263,-0.80735 0.54691,-0.13022 4.06278,-0.0521 4.42737,-0.18231 0.36462,-0.13021 1.74492,-1.11986 2.50018,-1.32821 0.75525,-0.20835 4.68779,-0.10417 6.17227,-0.31252 1.48448,-0.20835 5.05241,-0.93756 5.59932,-1.32821 0.54692,-0.39065 0.70317,-0.93756 1.27614,-1.19799 0.57294,-0.26044 10.70383,-2.10952 10.70383,-2.10952 0,0 1.11986,-0.98964 1.84906,-1.27613 0.72922,-0.28648 3.62003,-1.01569 4.37529,-1.43238 0.75526,-0.41669 1.84908,-1.25008 2.60434,-1.5626 0.75525,-0.31252 3.35959,-1.30217 4.47946,-2.396 1.11986,-1.09382 2.18764,-2.73455 2.91686,-2.99498 0.72921,-0.26044 3.1252,-0.39065 4.4534,-1.30218 1.32823,-0.91151 2.16161,0.65109 2.96896,1.06778 0.80733,0.4167 2.34389,0.62505 3.22937,1.22405 0.88547,0.59899 2.18764,1.82303 2.70851,2.60433 0.52086,0.78131 2.10951,1.3803 2.63037,1.53656 0.52087,0.15626 1.45845,0.85944 1.69283,1.17195 0.23439,0.31252 0.96359,1.0157 1.51051,1.11987 0.5469,0.10418 2.18764,0.88548 2.96895,1.82304 0,0 0.33856,0.70317 1.09382,0.70317 0.75525,0 2.60434,1.01569 2.60434,1.01569 0,0 3.85441,2.89082 5.00033,2.96895 1.1459,0.0781 1.0938,-0.26044 1.64073,-0.0521 0.5469,0.20835 2.57829,1.87513 2.99498,2.1616 0.41669,0.28649 2.76059,1.64074 3.48981,1.66678 0.72922,0.026 0.67712,-0.33857 1.04174,0 0.3646,0.33857 0.98964,1.01569 1.19799,1.45844 0.20836,0.44273 1.58865,3.04707 1.90118,3.33354 0.31251,0.28648 2.34389,2.36995 2.78663,2.65643 0.44273,0.28648 3.5419,2.3439 4.19298,2.65642 0.65108,0.31253 2.39599,1.11988 2.83873,1.58865 0.44273,0.46878 2.31786,2.10951 2.83871,2.47412 0.52088,0.36461 2.13557,1.69282 2.55227,2.03138 0.41668,0.33857 2.65643,1.797 3.22938,2.05744 0.57294,0.26043 0.83338,0.57295 1.19798,2.00533 0.36461,1.43239 1.64074,1.74491 2.13557,2.05743 0.49482,0.31253 1.90116,1.17196 2.3439,2.63038 v 0 c 0,0 1.04694,-0.16667 1.66677,0.0156 0.61984,0.18231 1.42198,1.0209 2.18764,1.16675 0.76569,0.14584 1.75012,-0.25523 2.47933,-0.14585 0.72922,0.10939 2.44286,1.6772 3.75545,1.82304 1.31259,0.14584 3.68254,0.51045 4.66698,0.58337 0.98444,0.0729 4.30236,0 4.77635,-0.14585 0.47399,-0.14584 1.60427,-0.29168 1.96888,-0.21876 0.36461,0.0729 2.18765,1.27613 2.80747,1.45843 0.61984,0.1823 1.96889,0.14584 2.47933,0.0365 0.51046,-0.10938 1.38552,-0.43753 1.71366,-0.1823 0.32815,0.25523 1.02091,0.91151 1.31259,1.02089 0.29167,0.10939 3.28147,1.3126 4.04713,1.34905 0.76569,0.0365 3.5367,-1.67719 4.15653,-1.93242 0.61984,-0.25522 2.2241,-0.43752 3.53669,0.0365 1.31258,0.47399 2.62518,1.38551 2.88039,1.56782 0.25524,0.18231 3.53669,1.34904 4.48467,1.31258 0.94798,-0.0365 2.18765,0.10938 2.98979,0.40108 0.80213,0.29169 3.35437,0.76566 5.10449,0.76566 1.75011,0 4.19298,0.76569 5.06804,0.76569 0.87506,0 5.72433,-0.76569 7.03691,-1.09383 1.31259,-0.32815 7.83907,-1.27612 7.83907,-1.27612 v 0 6.55814 h -262.74654 z"
         id="path826"
         inkscape:connector-curvature="0"
         sodipodi:nodetypes="ccsccsccssssccscccsccssscccccscsccscccccscccscccsccccccsscccsccscsccscccccccsssccccc"
         inkscape:export-xdpi="95.999969"
         inkscape:export-ydpi="95.999969" />
      <path
         style="fill:#fa9600;fill-opacity:1;stroke:none;stroke-width:0.0365588px;stroke-linecap:butt;stroke-linejoin:miter;stroke-opacity:1"
         d="m -120.7303,248.0456 -4.2799,-6.72088 h 8.55982 z"
         id="path842"
         inkscape:connector-curvature="0"
         sodipodi:nodetypes="cccc"
         inkscape:export-xdpi="95.999969"
         inkscape:export-ydpi="95.999969" />
      <path
         style="fill:#fa9600;fill-opacity:1;stroke:none;stroke-width:0.0365588px;stroke-linecap:butt;stroke-linejoin:miter;stroke-opacity:1"
         d="m -153.69079,243.41402 -4.27991,-6.72087 h 8.55983 z"
         id="path846"
         inkscape:connector-curvature="0"
         sodipodi:nodetypes="cccc"
         inkscape:export-xdpi="95.999969"
         inkscape:export-ydpi="95.999969" />
      <path
         sodipodi:nodetypes="cccc"
         inkscape:connector-curvature="0"
         id="path848"
         d="m -186.35959,231.12783 -4.27991,-6.72087 h 8.55983 z"
         style="fill:#fa9600;fill-opacity:1;stroke:none;stroke-width:0.0365588px;stroke-linecap:butt;stroke-linejoin:miter;stroke-opacity:1"
         inkscape:export-xdpi="95.999969"
         inkscape:export-ydpi="95.999969" />
      <path
         sodipodi:nodetypes="cccc"
         inkscape:connector-curvature="0"
         id="path852"
         d="m -207.71026,214.03412 -4.27992,-6.72088 h 8.55982 z"
         style="fill:#fa9600;fill-opacity:1;stroke:none;stroke-width:0.0365588px;stroke-linecap:butt;stroke-linejoin:miter;stroke-opacity:1"
         inkscape:export-xdpi="95.999969"
         inkscape:export-ydpi="95.999969" />
      <path
         style="fill:#fa9600;fill-opacity:1;stroke:none;stroke-width:0.0365588px;stroke-linecap:butt;stroke-linejoin:miter;stroke-opacity:1"
         d="m -240.67075,194.49117 -4.27992,-6.72087 h 8.55984 z"
         id="path854"
         inkscape:connector-curvature="0"
         sodipodi:nodetypes="cccc"
         inkscape:export-xdpi="95.999969"
         inkscape:export-ydpi="95.999969" />
      <path
         sodipodi:nodetypes="cccc"
         inkscape:connector-curvature="0"
         id="path856"
         d="m -253.50493,201.90414 -4.2799,-6.72088 h 8.55982 z"
         style="fill:#fa9600;fill-opacity:1;stroke:none;stroke-width:0.0365588px;stroke-linecap:butt;stroke-linejoin:miter;stroke-opacity:1"
         inkscape:export-xdpi="95.999969"
         inkscape:export-ydpi="95.999969" />
      <path
         sodipodi:nodetypes="cccc"
         inkscape:connector-curvature="0"
         id="path860"
         d="m -276.83978,210.49849 -4.27992,-6.72087 h 8.55983 z"
         style="fill:#fa9600;fill-opacity:1;stroke:none;stroke-width:0.0365588px;stroke-linecap:butt;stroke-linejoin:miter;stroke-opacity:1"
         inkscape:export-xdpi="95.999969"
         inkscape:export-ydpi="95.999969" />
      <path
         style="fill:#fa9600;fill-opacity:1;stroke:none;stroke-width:0.0365588px;stroke-linecap:butt;stroke-linejoin:miter;stroke-opacity:1"
         d="m -306.88341,215.74884 -4.27992,-6.72088 h 8.55983 z"
         id="path862"
         inkscape:connector-curvature="0"
         sodipodi:nodetypes="cccc"
         inkscape:export-xdpi="95.999969"
         inkscape:export-ydpi="95.999969" />
      <path
         style="fill:#fa9600;fill-opacity:1;stroke:none;stroke-width:0.0365588px;stroke-linecap:butt;stroke-linejoin:miter;stroke-opacity:1"
         d="m -328.46816,229.87057 -4.27991,-6.72087 h 8.55982 z"
         id="path866"
         inkscape:connector-curvature="0"
         sodipodi:nodetypes="cccc"
         inkscape:export-xdpi="95.999969"
         inkscape:export-ydpi="95.999969" />
      <path
         sodipodi:nodetypes="cccc"
         inkscape:connector-curvature="0"
         id="path868"
         d="m -352.38639,240.6129 -4.27991,-6.72087 h 8.55982 z"
         style="fill:#fa9600;fill-opacity:1;stroke:none;stroke-width:0.0365588px;stroke-linecap:butt;stroke-linejoin:miter;stroke-opacity:1"
         inkscape:export-xdpi="95.999969"
         inkscape:export-ydpi="95.999969" />
      <circle
         style="opacity:1;vector-effect:none;fill:#fabd4a;fill-opacity:1;stroke:none;stroke-width:0.493058;stroke-linecap:butt;stroke-linejoin:miter;stroke-miterlimit:4;stroke-dasharray:none;stroke-dashoffset:0;stroke-opacity:1;paint-order:fill markers stroke"
         id="path870"
         cx="-112.02832"
         cy="153.74455"
         r="2.4793284"
         inkscape:export-xdpi="95.999969"
         inkscape:export-ydpi="95.999969" />
      <circle
         cy="153.74455"
         cx="-129.11786"
         id="circle872"
         style="opacity:1;vector-effect:none;fill:#fabd4a;fill-opacity:1;stroke:none;stroke-width:0.493058;stroke-linecap:butt;stroke-linejoin:miter;stroke-miterlimit:4;stroke-dasharray:none;stroke-dashoffset:0;stroke-opacity:1;paint-order:fill markers stroke"
         r="2.4793284"
         inkscape:export-xdpi="95.999969"
         inkscape:export-ydpi="95.999969" />
      <circle
         style="opacity:1;vector-effect:none;fill:#fabd4a;fill-opacity:1;stroke:none;stroke-width:0.493058;stroke-linecap:butt;stroke-linejoin:miter;stroke-miterlimit:4;stroke-dasharray:none;stroke-dashoffset:0;stroke-opacity:1;paint-order:fill markers stroke"
         id="circle874"
         cx="-146.20741"
         cy="153.74455"
         r="2.4793284"
         inkscape:export-xdpi="95.999969"
         inkscape:export-ydpi="95.999969" />
      <circle
         cy="153.74455"
         cx="-163.29695"
         id="circle876"
         style="opacity:1;vector-effect:none;fill:#fabd4a;fill-opacity:1;stroke:none;stroke-width:0.493058;stroke-linecap:butt;stroke-linejoin:miter;stroke-miterlimit:4;stroke-dasharray:none;stroke-dashoffset:0;stroke-opacity:1;paint-order:fill markers stroke"
         r="2.4793284"
         inkscape:export-xdpi="95.999969"
         inkscape:export-ydpi="95.999969" />
      <circle
         style="opacity:1;vector-effect:none;fill:#fabd4a;fill-opacity:1;stroke:none;stroke-width:0.493058;stroke-linecap:butt;stroke-linejoin:miter;stroke-miterlimit:4;stroke-dasharray:none;stroke-dashoffset:0;stroke-opacity:1;paint-order:fill markers stroke"
         id="circle878"
         cx="-180.38647"
         cy="149.41322"
         r="2.4793284"
         inkscape:export-xdpi="95.999969"
         inkscape:export-ydpi="95.999969" />
      <circle
         cy="153.95079"
         cx="-197.47601"
         id="circle880"
         style="opacity:1;vector-effect:none;fill:#fabd4a;fill-opacity:1;stroke:none;stroke-width:0.493058;stroke-linecap:butt;stroke-linejoin:miter;stroke-miterlimit:4;stroke-dasharray:none;stroke-dashoffset:0;stroke-opacity:1;paint-order:fill markers stroke"
         r="2.4793284"
         inkscape:export-xdpi="95.999969"
         inkscape:export-ydpi="95.999969" />
      <circle
         style="opacity:1;vector-effect:none;fill:#fabd4a;fill-opacity:1;stroke:none;stroke-width:0.493058;stroke-linecap:butt;stroke-linejoin:miter;stroke-miterlimit:4;stroke-dasharray:none;stroke-dashoffset:0;stroke-opacity:1;paint-order:fill markers stroke"
         id="circle886"
         cx="-214.56554"
         cy="155.80707"
         r="2.4793284"
         inkscape:export-xdpi="95.999969"
         inkscape:export-ydpi="95.999969" />
      <circle
         cy="155.80707"
         cx="-231.65511"
         id="circle888"
         style="opacity:1;vector-effect:none;fill:#fabd4a;fill-opacity:1;stroke:none;stroke-width:0.493058;stroke-linecap:butt;stroke-linejoin:miter;stroke-miterlimit:4;stroke-dasharray:none;stroke-dashoffset:0;stroke-opacity:1;paint-order:fill markers stroke"
         r="2.4793284"
         inkscape:export-xdpi="95.999969"
         inkscape:export-ydpi="95.999969" />
      <circle
         cy="151.68201"
         cx="-248.74461"
         id="circle896"
         style="opacity:1;vector-effect:none;fill:#fabd4a;fill-opacity:1;stroke:none;stroke-width:0.493058;stroke-linecap:butt;stroke-linejoin:miter;stroke-miterlimit:4;stroke-dasharray:none;stroke-dashoffset:0;stroke-opacity:1;paint-order:fill markers stroke"
         r="2.4793284"
         inkscape:export-xdpi="95.999969"
         inkscape:export-ydpi="95.999969" />
      <circle
         style="opacity:1;vector-effect:none;fill:#fabd4a;fill-opacity:1;stroke:none;stroke-width:0.493058;stroke-linecap:butt;stroke-linejoin:miter;stroke-miterlimit:4;stroke-dasharray:none;stroke-dashoffset:0;stroke-opacity:1;paint-order:fill markers stroke"
         id="circle898"
         cx="-265.83417"
         cy="155.80707"
         r="2.4793284"
         inkscape:export-xdpi="95.999969"
         inkscape:export-ydpi="95.999969" />
      <circle
         cy="151.68201"
         cx="-282.92374"
         id="circle900"
         style="opacity:1;vector-effect:none;fill:#fabd4a;fill-opacity:1;stroke:none;stroke-width:0.493058;stroke-linecap:butt;stroke-linejoin:miter;stroke-miterlimit:4;stroke-dasharray:none;stroke-dashoffset:0;stroke-opacity:1;paint-order:fill markers stroke"
         r="2.4793284"
         inkscape:export-xdpi="95.999969"
         inkscape:export-ydpi="95.999969" />
      <circle
         style="opacity:1;vector-effect:none;fill:#fabd4a;fill-opacity:1;stroke:none;stroke-width:0.493058;stroke-linecap:butt;stroke-linejoin:miter;stroke-miterlimit:4;stroke-dasharray:none;stroke-dashoffset:0;stroke-opacity:1;paint-order:fill markers stroke"
         id="circle902"
         cx="-300.01324"
         cy="149.61949"
         r="2.4793284"
         inkscape:export-xdpi="95.999969"
         inkscape:export-ydpi="95.999969" />
      <circle
         cy="145.49443"
         cx="-317.10281"
         id="circle904"
         style="opacity:1;vector-effect:none;fill:#fabd4a;fill-opacity:1;stroke:none;stroke-width:0.493058;stroke-linecap:butt;stroke-linejoin:miter;stroke-miterlimit:4;stroke-dasharray:none;stroke-dashoffset:0;stroke-opacity:1;paint-order:fill markers stroke"
         r="2.4793284"
         inkscape:export-xdpi="95.999969"
         inkscape:export-ydpi="95.999969" />
      <circle
         style="opacity:1;vector-effect:none;fill:#fabd4a;fill-opacity:1;stroke:none;stroke-width:0.493058;stroke-linecap:butt;stroke-linejoin:miter;stroke-miterlimit:4;stroke-dasharray:none;stroke-dashoffset:0;stroke-opacity:1;paint-order:fill markers stroke"
         id="circle906"
         cx="-334.19235"
         cy="156.01332"
         r="2.4793284"
         inkscape:export-xdpi="95.999969"
         inkscape:export-ydpi="95.999969" />
      <g
         transform="matrix(0.01001242,0,0,-0.01001242,-364.40685,161.19711)"
         id="g4"
         style="fill:#fabd4a;fill-opacity:1;stroke:none"
         inkscape:export-xdpi="95.999969"
         inkscape:export-ydpi="95.999969">
        <path
           style="fill:#fabd4a;fill-opacity:1;stroke:none"
           inkscape:connector-curvature="0"
           d="m 924,642 q 0,-13 8.5,-22.5 8.5,-9.5 24.5,-9.5 13,0 26,6.5 13,6.5 23.5,17.5 10.5,11 17,25 6.5,14 6.5,30 0,38 -39,38 -14,0 -26,-8 -12,-8 -21,-20.5 Q 935,686 929.5,671 924,656 924,642 Z m -30,62 q 0,20 -14.5,28.5 -14.5,8.5 -30.5,8.5 -24,0 -47,-29 -22,-28 -22,-53 0,-40 45,-40 28,0 48,33 10,17 15.5,30 5.5,13 5.5,22 z m 1379,115 q 0,-34 -44,-66 76,-129 76,-179 0,-48 -46,-48 -33,0 -86,36.5 Q 2120,599 2058,664 1969,626 1866,593.5 1763,561 1643,533 1801,78 1801,-95 q 0,-178 -137,-178 -128,0 -298,197 -171,198 -325,527 L 870,445 Q 710,440 579,459.5 448,479 355,516 q -93,37 -143,87 -50,50 -47,106 2,36 23.5,71 21.5,35 59.5,65 20,15 44,28.5 24,13.5 52,27.5 55,27 65,27 14,-97 111,-180 99,-84 141,-84 18,0 48,32 30,30 30,46 0,14 -8.5,24 -8.5,10 -32.5,24 -35,20 -65,46 -30,26 -53,57.5 -23,31.5 -38,67.5 -15,36 -19,75 124,77 295,77 -9,54 -13,106 -4,52 -4,105 0,96 15.5,172.5 15.5,76.5 47.5,134.5 63,117 168,117 47,0 101,-44 54,-44 111,-132 57,-88 116.5,-220 59.5,-132 117.5,-309 144,-26 277.5,-52.5 Q 1889,964 2014,937 q 11,12 31,31.5 20,19.5 50,47.5 60,55 105.5,77.5 45.5,22.5 83.5,22.5 52,0 52,-44 0,-26 -23.5,-75.5 Q 2289,947 2243,872 q 30,-27 30,-53 z"
           id="path2" />
      </g>
    </g>
    <g
       aria-label="Airborne surveys"
       transform="matrix(0.26458333,0,0,0.26458333,2.4783133,1.4398103)"
       id="text2307"
       style="font-size:24px;font-family:'Fira Code';-inkscape-font-specification:'Fira Code';white-space:pre;shape-inside:url(#rect2309);display:inline;fill:#fabd4a">
      <path
         d="m -92.571141,246.78481 7.68,-16.8 h 1.752 l 7.68,16.8 h -1.872 l -7.056,-15.768 h 0.72 l -7.056,15.768 z m 3.024,-4.488 0.528,-1.44 h 9.768 l 0.528,1.44 z"
         style="font-family:Montserrat;-inkscape-font-specification:Montserrat"
         id="path3131" />
      <path
         d="m -73.035118,246.78481 v -12.6 h 1.704 v 12.6 z m 0.864,-15.384 q -0.528,0 -0.888,-0.36 -0.36,-0.36 -0.36,-0.864 0,-0.504 0.36,-0.84 0.36,-0.36 0.888,-0.36 0.528,0 0.888,0.336 0.36,0.336 0.36,0.84 0,0.528 -0.36,0.888 -0.336,0.36 -0.888,0.36 z"
         style="font-family:Montserrat;-inkscape-font-specification:Montserrat"
         id="path3133" />
      <path
         d="m -66.579139,246.78481 v -12.6 h 1.632 v 3.432 l -0.168,-0.6 q 0.528,-1.44 1.776,-2.184 1.248,-0.768 3.096,-0.768 v 1.656 q -0.096,0 -0.192,0 -0.096,-0.024 -0.192,-0.024 -1.992,0 -3.12,1.224 -1.128,1.2 -1.128,3.432 v 6.432 z"
         style="font-family:Montserrat;-inkscape-font-specification:Montserrat"
         id="path3135" />
      <path
         d="m -50.636785,246.90481 q -1.656,0 -2.976,-0.744 -1.32,-0.768 -2.088,-2.208 -0.768,-1.44 -0.768,-3.48 0,-2.064 0.768,-3.48 0.792,-1.44 2.112,-2.184 1.32,-0.744 2.952,-0.744 1.8,0 3.216,0.816 1.44,0.792 2.256,2.232 0.816,1.44 0.816,3.36 0,1.896 -0.816,3.36 -0.816,1.44 -2.256,2.256 -1.416,0.816 -3.216,0.816 z m -6.504,-0.12 v -17.808 h 1.704 v 8.928 l -0.24,2.544 0.168,2.544 v 3.792 z m 6.384,-1.392 q 1.344,0 2.4,-0.6 1.056,-0.624 1.68,-1.728 0.624,-1.128 0.624,-2.592 0,-1.488 -0.624,-2.592 -0.624,-1.104 -1.68,-1.704 -1.056,-0.624 -2.4,-0.624 -1.344,0 -2.424,0.624 -1.056,0.6 -1.68,1.704 -0.6,1.104 -0.6,2.592 0,1.464 0.6,2.592 0.624,1.104 1.68,1.728 1.08,0.6 2.424,0.6 z"
         style="font-family:Montserrat;-inkscape-font-specification:Montserrat"
         id="path3137" />
      <path
         d="m -35.732797,246.90481 q -1.824,0 -3.288,-0.816 -1.44,-0.84 -2.28,-2.28 -0.84,-1.464 -0.84,-3.336 0,-1.896 0.84,-3.336 0.84,-1.44 2.28,-2.256 1.44,-0.816 3.288,-0.816 1.872,0 3.312,0.816 1.464,0.816 2.28,2.256 0.84,1.44 0.84,3.336 0,1.872 -0.84,3.336 -0.816,1.44 -2.28,2.28 -1.464,0.816 -3.312,0.816 z m 0,-1.512 q 1.368,0 2.424,-0.6 1.056,-0.624 1.656,-1.728 0.624,-1.128 0.624,-2.592 0,-1.488 -0.624,-2.592 -0.6,-1.104 -1.656,-1.704 -1.056,-0.624 -2.4,-0.624 -1.344,0 -2.4,0.624 -1.056,0.6 -1.68,1.704 -0.624,1.104 -0.624,2.592 0,1.464 0.624,2.592 0.624,1.104 1.68,1.728 1.056,0.6 2.376,0.6 z"
         style="font-family:Montserrat;-inkscape-font-specification:Montserrat"
         id="path3139" />
      <path
         d="m -25.820777,246.78481 v -12.6 h 1.632 v 3.432 l -0.168,-0.6 q 0.528,-1.44 1.776,-2.184 1.248,-0.768 3.096,-0.768 v 1.656 q -0.096,0 -0.192,0 -0.096,-0.024 -0.192,-0.024 -1.992,0 -3.12,1.224 -1.128,1.2 -1.128,3.432 v 6.432 z"
         style="font-family:Montserrat;-inkscape-font-specification:Montserrat"
         id="path3141" />
      <path
         d="m -9.9504229,234.06481 q 1.536,0 2.688,0.6 1.176,0.576 1.824,1.776 0.672,1.2 0.672,3.024 v 7.32 h -1.704 v -7.152 q 0,-1.992 -1.008,-3 -0.984,-1.032 -2.7840001,-1.032 -1.344,0 -2.352,0.552 -0.984,0.528 -1.536,1.56 -0.528,1.008 -0.528,2.448 v 6.624 h -1.704 v -12.6 h 1.632 v 3.456 l -0.264,-0.648 q 0.6,-1.368 1.92,-2.136 1.32,-0.792 3.1440001,-0.792 z"
         style="font-family:Montserrat;-inkscape-font-specification:Montserrat"
         id="path3143" />
      <path
         d="m 5.1935914,246.90481 q -1.968,0 -3.456,-0.816 -1.48799997,-0.84 -2.32799997,-2.28 -0.84000003,-1.464 -0.84000003,-3.336 0,-1.872 0.79200003,-3.312 0.816,-1.44 2.20799997,-2.256 1.416,-0.84 3.168,-0.84 1.776,0 3.144,0.816 1.392,0.792 2.1839996,2.256 0.792,1.44 0.792,3.336 0,0.12 -0.024,0.264 0,0.12 0,0.264 H -0.13440857 v -1.272 H 9.9215914 l -0.672,0.504 q 0,-1.368 -0.6,-2.424 -0.576,-1.08 -1.584,-1.68 -1.008,-0.6 -2.328,-0.6 -1.296,0 -2.328,0.6 -1.032,0.6 -1.60799997,1.68 -0.576,1.08 -0.576,2.472 v 0.264 q 0,1.44 0.624,2.544 0.64799997,1.08 1.77599997,1.704 1.152,0.6 2.616,0.6 1.152,0 2.136,-0.408 1.008,-0.408 1.728,-1.248 l 0.9599996,1.104 q -0.8399996,1.008 -2.1119996,1.536 -1.248,0.528 -2.76,0.528 z"
         style="font-family:Montserrat;-inkscape-font-specification:Montserrat"
         id="path3145" />
      <path
         d="m 24.009573,246.90481 q -1.56,0 -2.952,-0.432 -1.392,-0.456 -2.184,-1.128 l 0.768,-1.344 q 0.768,0.576 1.968,1.008 1.2,0.408 2.52,0.408 1.8,0 2.592,-0.552 0.792,-0.576 0.792,-1.512 0,-0.696 -0.456,-1.08 -0.432,-0.408 -1.152,-0.6 -0.72,-0.216 -1.608,-0.36 -0.888,-0.144 -1.776,-0.336 -0.864,-0.192 -1.584,-0.552 -0.72,-0.384 -1.176,-1.032 -0.432,-0.648 -0.432,-1.728 0,-1.032 0.576,-1.848 0.576,-0.816 1.68,-1.272 1.128,-0.48 2.736,-0.48 1.224,0 2.448,0.336 1.224,0.312 2.016,0.84 l -0.744,1.368 q -0.84,-0.576 -1.8,-0.816 -0.96,-0.264 -1.92,-0.264 -1.704,0 -2.52,0.6 -0.792,0.576 -0.792,1.488 0,0.72 0.432,1.128 0.456,0.408 1.176,0.648 0.744,0.216 1.608,0.36 0.888,0.144 1.752,0.36 0.888,0.192 1.608,0.552 0.744,0.336 1.176,0.984 0.456,0.624 0.456,1.656 0,1.104 -0.624,1.92 -0.6,0.792 -1.776,1.248 -1.152,0.432 -2.808,0.432 z"
         style="font-family:Montserrat;-inkscape-font-specification:Montserrat"
         id="path3147" />
      <path
         d="m 37.545594,246.90481 q -1.608,0 -2.808,-0.6 -1.2,-0.6 -1.872,-1.8 -0.648,-1.2 -0.648,-3 v -7.32 h 1.704 v 7.128 q 0,2.016 0.984,3.048 1.008,1.008 2.808,1.008 1.32,0 2.28,-0.528 0.984,-0.552 1.488,-1.584 0.528,-1.032 0.528,-2.472 v -6.6 h 1.704 v 12.6 h -1.632 v -3.456 l 0.264,0.624 q -0.6,1.392 -1.872,2.184 -1.248,0.768 -2.928,0.768 z"
         style="font-family:Montserrat;-inkscape-font-specification:Montserrat"
         id="path3149" />
      <path
         d="m 48.465615,246.78481 v -12.6 h 1.632 v 3.432 l -0.168,-0.6 q 0.528,-1.44 1.776,-2.184 1.248,-0.768 3.096,-0.768 v 1.656 q -0.096,0 -0.192,0 -0.096,-0.024 -0.192,-0.024 -1.992,0 -3.12,1.224 -1.128,1.2 -1.128,3.432 v 6.432 z"
         style="font-family:Montserrat;-inkscape-font-specification:Montserrat"
         id="path3151" />
      <path
         d="m 61.689578,246.78481 -5.592,-12.6 h 1.776 l 5.136,11.688 h -0.84 l 5.208,-11.688 h 1.68 l -5.616,12.6 z"
         style="font-family:Montserrat;-inkscape-font-specification:Montserrat"
         id="path3153" />
      <path
         d="m 76.449588,246.90481 q -1.968,0 -3.456,-0.816 -1.488,-0.84 -2.328,-2.28 -0.84,-1.464 -0.84,-3.336 0,-1.872 0.792,-3.312 0.816,-1.44 2.208,-2.256 1.416,-0.84 3.168,-0.84 1.776,0 3.144,0.816 1.392,0.792 2.184,2.256 0.792,1.44 0.792,3.336 0,0.12 -0.024,0.264 0,0.12 0,0.264 h -10.968 v -1.272 h 10.056 l -0.672,0.504 q 0,-1.368 -0.6,-2.424 -0.576,-1.08 -1.584,-1.68 -1.008,-0.6 -2.328,-0.6 -1.296,0 -2.328,0.6 -1.032,0.6 -1.608,1.68 -0.576,1.08 -0.576,2.472 v 0.264 q 0,1.44 0.624,2.544 0.648,1.08 1.776,1.704 1.152,0.6 2.616,0.6 1.152,0 2.136,-0.408 1.008,-0.408 1.728,-1.248 l 0.96,1.104 q -0.84,1.008 -2.112,1.536 -1.248,0.528 -2.76,0.528 z"
         style="font-family:Montserrat;-inkscape-font-specification:Montserrat"
         id="path3155" />
      <path
         d="m 85.449585,251.56081 q -0.888,0 -1.704,-0.288 -0.792,-0.288 -1.368,-0.864 l 0.792,-1.272 q 0.48,0.456 1.032,0.696 0.576,0.264 1.272,0.264 0.84,0 1.44,-0.48 0.624,-0.456 1.176,-1.632 l 0.816,-1.848 0.192,-0.264 5.184,-11.688 h 1.68 l -6.312,14.112 q -0.528,1.224 -1.176,1.944 -0.624,0.72 -1.368,1.008 -0.744,0.312 -1.656,0.312 z m 3.36,-4.416 -5.808,-12.96 h 1.776 l 5.136,11.568 z"
         style="font-family:Montserrat;-inkscape-font-specification:Montserrat"
         id="path3157" />
      <path
         d="m 101.59841,246.90481 q -1.56,0 -2.952001,-0.432 -1.392,-0.456 -2.184,-1.128 l 0.768,-1.344 q 0.768,0.576 1.968,1.008 1.200001,0.408 2.520001,0.408 1.8,0 2.592,-0.552 0.792,-0.576 0.792,-1.512 0,-0.696 -0.456,-1.08 -0.432,-0.408 -1.152,-0.6 -0.72,-0.216 -1.608,-0.36 -0.888,-0.144 -1.776,-0.336 -0.864001,-0.192 -1.584001,-0.552 -0.72,-0.384 -1.176,-1.032 -0.432,-0.648 -0.432,-1.728 0,-1.032 0.576,-1.848 0.576,-0.816 1.68,-1.272 1.128001,-0.48 2.736001,-0.48 1.224,0 2.448,0.336 1.224,0.312 2.016,0.84 l -0.744,1.368 q -0.84,-0.576 -1.8,-0.816 -0.96,-0.264 -1.92,-0.264 -1.704,0 -2.520001,0.6 -0.792,0.576 -0.792,1.488 0,0.72 0.432,1.128 0.456,0.408 1.176001,0.648 0.744,0.216 1.608,0.36 0.888,0.144 1.752,0.36 0.888,0.192 1.608,0.552 0.744,0.336 1.176,0.984 0.456,0.624 0.456,1.656 0,1.104 -0.624,1.92 -0.6,0.792 -1.776,1.248 -1.152,0.432 -2.808,0.432 z"
         style="font-family:Montserrat;-inkscape-font-specification:Montserrat"
         id="path3159" />
    </g>
    <g
       aria-label="Ground surveys"
       transform="matrix(0.26458333,0,0,0.26458333,30.806176,65.75962)"
       id="text2572"
       style="font-size:24px;font-family:'Fira Code';-inkscape-font-specification:'Fira Code';white-space:pre;shape-inside:url(#rect2574);display:inline;fill:#fa9600">
      <path
         d="m -82.515141,246.92881 q -1.92,0 -3.552,-0.624 -1.608,-0.648 -2.808,-1.8 -1.176,-1.152 -1.848,-2.712 -0.648,-1.56 -0.648,-3.408 0,-1.848 0.648,-3.408 0.672,-1.56 1.872,-2.712 1.2,-1.152 2.808,-1.776 1.632,-0.648 3.552,-0.648 1.92,0 3.504,0.6 1.608,0.6 2.736,1.824 l -1.104,1.128 q -1.056,-1.056 -2.328,-1.512 -1.272,-0.456 -2.736,-0.456 -1.56,0 -2.88,0.528 -1.296,0.504 -2.28,1.464 -0.96,0.936 -1.512,2.208 -0.528,1.248 -0.528,2.76 0,1.488 0.528,2.76 0.552,1.272 1.512,2.232 0.984,0.936 2.28,1.464 1.32,0.504 2.856,0.504 1.44,0 2.712,-0.432 1.296,-0.432 2.376,-1.464 l 1.008,1.344 q -1.2,1.056 -2.808,1.608 -1.608,0.528 -3.36,0.528 z m 4.464,-2.352 v -6.192 h 1.704 v 6.408 z"
         style="font-family:Montserrat;-inkscape-font-specification:Montserrat"
         id="path3162" />
      <path
         d="m -71.691123,246.78481 v -12.6 h 1.632 v 3.432 l -0.168,-0.6 q 0.528,-1.44 1.776,-2.184 1.248,-0.768 3.096,-0.768 v 1.656 q -0.096,0 -0.192,0 -0.096,-0.024 -0.192,-0.024 -1.992,0 -3.12,1.224 -1.128,1.2 -1.128,3.432 v 6.432 z"
         style="font-family:Montserrat;-inkscape-font-specification:Montserrat"
         id="path3164" />
      <path
         d="m -57.236749,246.90481 q -1.824,0 -3.288,-0.816 -1.44,-0.84 -2.28,-2.28 -0.84,-1.464 -0.84,-3.336 0,-1.896 0.84,-3.336 0.84,-1.44 2.28,-2.256 1.44,-0.816 3.288,-0.816 1.872,0 3.312,0.816 1.464,0.816 2.28,2.256 0.84,1.44 0.84,3.336 0,1.872 -0.84,3.336 -0.816,1.44 -2.28,2.28 -1.464,0.816 -3.312,0.816 z m 0,-1.512 q 1.368,0 2.424,-0.6 1.056,-0.624 1.656,-1.728 0.624,-1.128 0.624,-2.592 0,-1.488 -0.624,-2.592 -0.6,-1.104 -1.656,-1.704 -1.056,-0.624 -2.4,-0.624 -1.344,0 -2.4,0.624 -1.056,0.6 -1.68,1.704 -0.624,1.104 -0.624,2.592 0,1.464 0.624,2.592 0.624,1.104 1.68,1.728 1.056,0.6 2.376,0.6 z"
         style="font-family:Montserrat;-inkscape-font-specification:Montserrat"
         id="path3166" />
      <path
         d="m -42.116729,246.90481 q -1.608,0 -2.808,-0.6 -1.2,-0.6 -1.872,-1.8 -0.648,-1.2 -0.648,-3 v -7.32 h 1.704 v 7.128 q 0,2.016 0.984,3.048 1.008,1.008 2.808,1.008 1.32,0 2.28,-0.528 0.984,-0.552 1.488,-1.584 0.528,-1.032 0.528,-2.472 v -6.6 h 1.704 v 12.6 h -1.632 v -3.456 l 0.264,0.624 q -0.6,1.392 -1.872,2.184 -1.248,0.768 -2.928,0.768 z"
         style="font-family:Montserrat;-inkscape-font-specification:Montserrat"
         id="path3168" />
      <path
         d="m -24.764708,234.06481 q 1.536,0 2.688,0.6 1.176,0.576 1.824,1.776 0.672,1.2 0.672,3.024 v 7.32 h -1.704 v -7.152 q 0,-1.992 -1.008,-3 -0.984,-1.032 -2.784,-1.032 -1.344,0 -2.352,0.552 -0.984,0.528 -1.536,1.56 -0.528,1.008 -0.528,2.448 v 6.624 h -1.704 v -12.6 h 1.632 v 3.456 l -0.264,-0.648 q 0.6,-1.368 1.92,-2.136 1.32,-0.792 3.144,-0.792 z"
         style="font-family:Montserrat;-inkscape-font-specification:Montserrat"
         id="path3170" />
      <path
         d="m -9.9566938,246.90481 q -1.8000002,0 -3.2400002,-0.816 -1.416,-0.816 -2.232,-2.256 -0.816,-1.464 -0.816,-3.36 0,-1.92 0.816,-3.36 0.816,-1.44 2.232,-2.232 1.44,-0.816 3.2400002,-0.816 1.656,0 2.952,0.744 1.32,0.744 2.088,2.184 0.792,1.416 0.792,3.48 0,2.04 -0.768,3.48 -0.768,1.44 -2.088,2.208 -1.296,0.744 -2.976,0.744 z m 0.12,-1.512 q 1.344,0 2.4,-0.6 1.08,-0.624 1.68,-1.728 0.624,-1.128 0.624,-2.592 0,-1.488 -0.624,-2.592 -0.6,-1.104 -1.68,-1.704 -1.056,-0.624 -2.4,-0.624 -1.3200002,0 -2.3760002,0.624 -1.056,0.6 -1.68,1.704 -0.624,1.104 -0.624,2.592 0,1.464 0.624,2.592 0.624,1.104 1.68,1.728 1.056,0.6 2.3760002,0.6 z m 4.752,1.392 v -3.792 l 0.168,-2.544 -0.24,-2.544 v -8.928 h 1.704 v 17.808 z"
         style="font-family:Montserrat;-inkscape-font-specification:Montserrat"
         id="path3172" />
      <path
         d="m 10.971273,246.90481 q -1.5599998,0 -2.9519998,-0.432 -1.392,-0.456 -2.184,-1.128 l 0.768,-1.344 q 0.768,0.576 1.968,1.008 1.2,0.408 2.5199998,0.408 1.8,0 2.592,-0.552 0.792,-0.576 0.792,-1.512 0,-0.696 -0.456,-1.08 -0.432,-0.408 -1.152,-0.6 -0.72,-0.216 -1.608,-0.36 -0.888,-0.144 -1.7759998,-0.336 -0.864,-0.192 -1.584,-0.552 -0.72,-0.384 -1.176,-1.032 -0.432,-0.648 -0.432,-1.728 0,-1.032 0.576,-1.848 0.576,-0.816 1.68,-1.272 1.128,-0.48 2.7359998,-0.48 1.224,0 2.448,0.336 1.224,0.312 2.016,0.84 l -0.744,1.368 q -0.84,-0.576 -1.8,-0.816 -0.96,-0.264 -1.92,-0.264 -1.7039998,0 -2.5199998,0.6 -0.792,0.576 -0.792,1.488 0,0.72 0.432,1.128 0.456,0.408 1.176,0.648 0.7439998,0.216 1.6079998,0.36 0.888,0.144 1.752,0.36 0.888,0.192 1.608,0.552 0.744,0.336 1.176,0.984 0.456,0.624 0.456,1.656 0,1.104 -0.624,1.92 -0.6,0.792 -1.776,1.248 -1.152,0.432 -2.808,0.432 z"
         style="font-family:Montserrat;-inkscape-font-specification:Montserrat"
         id="path3174" />
      <path
         d="m 24.507294,246.90481 q -1.608,0 -2.808,-0.6 -1.2,-0.6 -1.872,-1.8 -0.648,-1.2 -0.648,-3 v -7.32 h 1.704 v 7.128 q 0,2.016 0.984,3.048 1.008,1.008 2.808,1.008 1.32,0 2.28,-0.528 0.984,-0.552 1.488,-1.584 0.528,-1.032 0.528,-2.472 v -6.6 h 1.704 v 12.6 h -1.632 v -3.456 l 0.264,0.624 q -0.6,1.392 -1.872,2.184 -1.248,0.768 -2.928,0.768 z"
         style="font-family:Montserrat;-inkscape-font-specification:Montserrat"
         id="path3176" />
      <path
         d="m 35.427315,246.78481 v -12.6 h 1.632 v 3.432 l -0.168,-0.6 q 0.528,-1.44 1.776,-2.184 1.248,-0.768 3.096,-0.768 v 1.656 q -0.096,0 -0.192,0 -0.096,-0.024 -0.192,-0.024 -1.992,0 -3.12,1.224 -1.128,1.2 -1.128,3.432 v 6.432 z"
         style="font-family:Montserrat;-inkscape-font-specification:Montserrat"
         id="path3178" />
      <path
         d="m 48.651278,246.78481 -5.592,-12.6 h 1.776 l 5.136,11.688 h -0.84 l 5.208,-11.688 h 1.68 l -5.616,12.6 z"
         style="font-family:Montserrat;-inkscape-font-specification:Montserrat"
         id="path3180" />
      <path
         d="m 63.411289,246.90481 q -1.968,0 -3.456,-0.816 -1.488,-0.84 -2.328,-2.28 -0.84,-1.464 -0.84,-3.336 0,-1.872 0.792,-3.312 0.816,-1.44 2.208,-2.256 1.416,-0.84 3.168,-0.84 1.776,0 3.144,0.816 1.392,0.792 2.184,2.256 0.792,1.44 0.792,3.336 0,0.12 -0.024,0.264 0,0.12 0,0.264 h -10.968 v -1.272 h 10.056 l -0.672,0.504 q 0,-1.368 -0.6,-2.424 -0.576,-1.08 -1.584,-1.68 -1.008,-0.6 -2.328,-0.6 -1.296,0 -2.328,0.6 -1.032,0.6 -1.608,1.68 -0.576,1.08 -0.576,2.472 v 0.264 q 0,1.44 0.624,2.544 0.648,1.08 1.776,1.704 1.152,0.6 2.616,0.6 1.152,0 2.136,-0.408 1.008,-0.408 1.728,-1.248 l 0.96,1.104 q -0.84,1.008 -2.112,1.536 -1.248,0.528 -2.76,0.528 z"
         style="font-family:Montserrat;-inkscape-font-specification:Montserrat"
         id="path3182" />
      <path
         d="m 72.411285,251.56081 q -0.888,0 -1.704,-0.288 -0.792,-0.288 -1.368,-0.864 l 0.792,-1.272 q 0.48,0.456 1.032,0.696 0.576,0.264 1.272,0.264 0.84,0 1.44,-0.48 0.624,-0.456 1.176,-1.632 l 0.816,-1.848 0.192,-0.264 5.184,-11.688 h 1.68 l -6.312,14.112 q -0.528,1.224 -1.176,1.944 -0.624,0.72 -1.368,1.008 -0.744,0.312 -1.656,0.312 z m 3.36,-4.416 -5.808,-12.96 h 1.776 l 5.136,11.568 z"
         style="font-family:Montserrat;-inkscape-font-specification:Montserrat"
         id="path3184" />
      <path
         d="m 88.56011,246.90481 q -1.56,0 -2.952,-0.432 -1.392,-0.456 -2.184,-1.128 l 0.768,-1.344 q 0.768,0.576 1.968,1.008 1.2,0.408 2.52,0.408 1.8,0 2.592,-0.552 0.792,-0.576 0.792,-1.512 0,-0.696 -0.456,-1.08 -0.432,-0.408 -1.152,-0.6 -0.72,-0.216 -1.608,-0.36 -0.888,-0.144 -1.776,-0.336 -0.864,-0.192 -1.584,-0.552 -0.72,-0.384 -1.176,-1.032 -0.432,-0.648 -0.432,-1.728 0,-1.032 0.576,-1.848 0.576,-0.816 1.68,-1.272 1.128,-0.48 2.736,-0.48 1.224,0 2.448,0.336 1.224,0.312 2.016,0.84 l -0.744,1.368 q -0.84,-0.576 -1.8,-0.816 -0.96,-0.264 -1.92,-0.264 -1.704,0 -2.52,0.6 -0.792,0.576 -0.792,1.488 0,0.72 0.432,1.128 0.456,0.408 1.176,0.648 0.744,0.216 1.608,0.36 0.888,0.144 1.752,0.36 0.888,0.192 1.608,0.552 0.744,0.336 1.176,0.984 0.456,0.624 0.456,1.656 0,1.104 -0.624,1.92 -0.6,0.792 -1.776,1.248 -1.152,0.432 -2.808,0.432 z"
         style="font-family:Montserrat;-inkscape-font-specification:Montserrat"
         id="path3186" />
    </g>
  </g>
</svg>
